<svg width="4238" height="2527" viewBox="0 0 4238 2527" fill="none" xmlns="http://www.w3.org/2000/svg">
<path d="M4233.84 2346.84C4238.72 2341.96 4238.72 2334.04 4233.84 2329.16L4154.29 2249.61C4149.41 2244.73 4141.49 2244.73 4136.61 2249.61C4131.73 2254.49 4131.73 2262.41 4136.61 2267.29L4207.32 2338L4136.61 2408.71C4131.73 2413.59 4131.73 2421.51 4136.61 2426.39C4141.49 2431.27 4149.41 2431.27 4154.29 2426.39L4233.84 2346.84ZM199 2350.5H4225V2325.5H199V2350.5Z" fill="white"/>
<path d="M207.839 4.1611C202.957 -0.720453 195.043 -0.720453 190.161 4.1611L110.612 83.7106C105.73 88.5922 105.73 96.5067 110.612 101.388C115.493 106.27 123.408 106.27 128.289 101.388L199 30.6776L269.711 101.388C274.592 106.27 282.507 106.27 287.388 101.388C292.27 96.5067 292.27 88.5922 287.388 83.7106L207.839 4.1611ZM211.5 2338L211.5 12.9999L186.5 12.9999L186.5 2338L211.5 2338Z" fill="white"/>
<path d="M208.5 2334.5C497.167 2329.5 1126.2 2219.2 1333 1818C1591.5 1316.5 1736.83 779.578 2321 663C2777 572 3430.5 541.5 3856 541.5" stroke="#42AFFA" stroke-width="30"/>
<path d="M2244.25 2486V2402.6H2215.9V2387.9H2290V2402.6H2261.65V2486H2244.25ZM2306.33 2486V2387.9H2323.73V2486H2306.33ZM2348.67 2486V2387.9H2368.32L2385.72 2435.9C2386.82 2439 2387.87 2442.2 2388.87 2445.5C2389.97 2448.7 2391.02 2451.9 2392.02 2455.1H2392.62C2393.72 2451.9 2394.77 2448.7 2395.77 2445.5C2396.77 2442.2 2397.77 2439 2398.77 2435.9L2415.72 2387.9H2435.52V2486H2419.47V2441.15C2419.47 2438.05 2419.57 2434.7 2419.77 2431.1C2420.07 2427.4 2420.37 2423.7 2420.67 2420C2421.07 2416.3 2421.42 2412.95 2421.72 2409.95H2421.12L2413.17 2432.75L2397.12 2476.85H2386.77L2370.57 2432.75L2362.77 2409.95H2362.17C2362.47 2412.95 2362.77 2416.3 2363.07 2420C2363.47 2423.7 2363.77 2427.4 2363.97 2431.1C2364.27 2434.7 2364.42 2438.05 2364.42 2441.15V2486H2348.67ZM2460.44 2486V2387.9H2519.54V2402.6H2477.84V2427.65H2513.09V2442.35H2477.84V2471.3H2521.04V2486H2460.44Z" fill="white"/>
<path d="M148 1645.55L49.9 1645.55L49.9 1628.15L148 1628.15L148 1645.55ZM148 1603.22L49.9 1603.22L49.9 1583.57L97.9 1566.17C101 1565.07 104.2 1564.02 107.5 1563.02C110.7 1561.92 113.9 1560.87 117.1 1559.87L117.1 1559.27C113.9 1558.17 110.7 1557.12 107.5 1556.12C104.2 1555.12 101 1554.12 97.9 1553.12L49.9 1536.17L49.9 1516.37L148 1516.37L148 1532.42L103.15 1532.42C100.05 1532.42 96.7 1532.32 93.1 1532.12C89.4 1531.82 85.7 1531.52 82 1531.22C78.3 1530.82 74.95 1530.47 71.95 1530.17L71.95 1530.77L94.75 1538.72L138.85 1554.77L138.85 1565.12L94.75 1581.32L71.95 1589.12L71.95 1589.72C74.95 1589.42 78.3 1589.12 82 1588.82C85.7 1588.42 89.4 1588.12 93.1 1587.92C96.7 1587.62 100.05 1587.47 103.15 1587.47L148 1587.47L148 1603.22ZM148 1491.45L49.9 1491.45L49.9 1460.55C49.9 1453.25 50.85 1446.75 52.75 1441.05C54.65 1435.35 57.8 1430.85 62.2 1427.55C66.6 1424.25 72.6 1422.6 80.2 1422.6C87.4 1422.6 93.35 1424.25 98.05 1427.55C102.75 1430.85 106.25 1435.3 108.55 1440.9C110.85 1446.5 112 1452.85 112 1459.95L112 1474.05L148 1474.05L148 1491.45ZM98.05 1474.05L98.05 1461.3C98.05 1446.9 92.1 1439.7 80.2 1439.7C74 1439.7 69.75 1441.6 67.45 1445.4C65.05 1449.1 63.85 1454.6 63.85 1461.9L63.85 1474.05L98.05 1474.05ZM148 1404.14L49.9 1404.14L49.9 1370.99C49.9 1364.19 50.8 1358.09 52.6 1352.69C54.4 1347.19 57.45 1342.89 61.75 1339.79C65.95 1336.59 71.7 1334.99 79 1334.99C86.5 1334.99 92.55 1336.79 97.15 1340.39C101.75 1343.89 105.05 1348.59 107.05 1354.49L148 1331.09L148 1350.59L109.6 1371.74L109.6 1386.74L148 1386.74L148 1404.14ZM95.8 1386.74L95.8 1372.79C95.8 1366.09 94.4 1360.99 91.6 1357.49C88.7 1353.89 84.5 1352.09 79 1352.09C73.4 1352.09 69.5 1353.89 67.3 1357.49C65 1360.99 63.85 1366.09 63.85 1372.79L63.85 1386.74L95.8 1386.74ZM149.8 1277.27C149.8 1285.77 147.75 1293.27 143.65 1299.77C139.45 1306.27 133.55 1311.37 125.95 1315.07C118.25 1318.67 109.1 1320.47 98.5 1320.47C87.9 1320.47 78.85 1318.67 71.35 1315.07C63.85 1311.37 58.1 1306.27 54.1 1299.77C50.1 1293.27 48.1 1285.77 48.1 1277.27C48.1 1268.67 50.1 1261.12 54.1 1254.62C58.1 1248.12 63.85 1243.07 71.35 1239.47C78.85 1235.77 87.9 1233.92 98.5 1233.92C109.1 1233.92 118.25 1235.77 125.95 1239.47C133.55 1243.07 139.45 1248.12 143.65 1254.62C147.75 1261.12 149.8 1268.67 149.8 1277.27ZM134.65 1277.27C134.65 1269.57 131.4 1263.42 124.9 1258.82C118.3 1254.22 109.5 1251.92 98.5 1251.92C87.5 1251.92 78.9 1254.22 72.7 1258.82C66.4 1263.42 63.25 1269.57 63.25 1277.27C63.25 1284.97 66.4 1291.12 72.7 1295.72C78.9 1300.32 87.5 1302.62 98.5 1302.62C109.5 1302.62 118.3 1300.32 124.9 1295.72C131.4 1291.12 134.65 1284.97 134.65 1277.27ZM148 1198.21L49.9 1228.81L49.9 1210.36L99.25 1196.56C104.75 1194.96 110.05 1193.51 115.15 1192.21C120.25 1190.91 125.6 1189.46 131.2 1187.86L131.2 1187.26C125.6 1185.56 120.25 1184.11 115.15 1182.91C110.05 1181.61 104.75 1180.21 99.25 1178.71L49.9 1165.06L49.9 1147.21L148 1177.66L148 1198.21ZM148 1135.34L49.9 1135.34L49.9 1076.24L64.6 1076.24L64.6 1117.94L89.65 1117.94L89.65 1082.69L104.35 1082.69L104.35 1117.94L133.3 1117.94L133.3 1074.74L148 1074.74L148 1135.34ZM148 1054.63L49.9 1054.63L49.9 1034.98L97.9 1017.58C101 1016.48 104.2 1015.43 107.5 1014.43C110.7 1013.33 113.9 1012.28 117.1 1011.28L117.1 1010.68C113.9 1009.58 110.7 1008.53 107.5 1007.53C104.2 1006.53 101 1005.53 97.9 1004.53L49.9 987.582L49.9 967.782L148 967.782L148 983.832L103.15 983.832C100.05 983.832 96.7 983.732 93.1 983.532C89.4 983.232 85.7 982.932 82 982.632C78.3 982.232 74.95 981.882 71.95 981.582L71.95 982.182L94.75 990.132L138.85 1006.18L138.85 1016.53L94.75 1032.73L71.95 1040.53L71.95 1041.13C74.95 1040.83 78.3 1040.53 82 1040.23C85.7 1039.83 89.4 1039.53 93.1 1039.33C96.7 1039.03 100.05 1038.88 103.15 1038.88L148 1038.88L148 1054.63ZM148 942.864L49.9 942.864L49.9 883.764L64.6 883.764L64.6 925.464L89.65 925.464L89.65 890.214L104.35 890.214L104.35 925.464L133.3 925.464L133.3 882.264L148 882.264L148 942.864ZM148 862.152L49.9 862.152L49.9 844.302L105.1 813.702L125.95 803.652L125.95 803.052C120.95 803.452 115.5 803.952 109.6 804.552C103.7 805.052 98 805.302 92.5 805.302L49.9 805.302L49.9 788.652L148 788.652L148 806.502L92.8 837.102L71.95 847.152L71.95 847.752C77.15 847.352 82.6 846.902 88.3 846.402C94 845.802 99.6 845.502 105.1 845.502L148 845.502L148 862.152ZM148 743.914L64.6 743.914L64.6 772.264L49.9 772.264L49.9 698.164L64.5999 698.164L64.6 726.514L148 726.514L148 743.914Z" fill="white"/>
</svg>
